<svg t="1725278275657" class="icon" viewBox="0 0 1024 1024" version="1.1" xmlns="http://www.w3.org/2000/svg" p-id="8805" width="200" height="200"><path d="M957.568 275.776A32 32 0 0 0 928 256h-198.464a157.44 157.44 0 0 1-87.68-26.56L531.712 155.968a220.8 220.8 0 0 0-86.72-34.24l-343.744-57.28a32 32 0 0 0-35.84 40.96l256 832a32 32 0 0 0 61.184-18.816L292.032 624.256l130.048-74.24A157.12 157.12 0 0 1 550.4 537.28a220.672 220.672 0 0 0 227.2-53.632l172.992-172.992a32.064 32.064 0 0 0 6.976-34.88zM732.352 438.4a157.056 157.056 0 0 1-161.664 38.144 222.272 222.272 0 0 0-180.352 17.856L272.768 561.536 141.824 136.064l292.672 48.768c22.208 3.712 42.944 11.904 61.696 24.384l110.208 73.472A221.12 221.12 0 0 0 729.536 320h121.216l-118.4 118.4z" p-id="8806"></path></svg>